<svg xmlns="http://www.w3.org/2000/svg" width="22.747" height="22.747" viewBox="0 0 22.747 22.747">
  <path id="Path_11832" data-name="Path 11832" d="M20.119,40.419a21.106,21.106,0,0,1,1-2.537,40.233,40.233,0,0,1,5.891-8.609,49.53,49.53,0,0,1,10.15-8.791,21.947,21.947,0,0,1,5.256-2.628c.091-.091.272-.091.453-.181l-1.088,1.359a42.56,42.56,0,0,0-3.444,4.531c-.091.181-.181.181-.362.181a9.852,9.852,0,0,1-2.356.362,2.869,2.869,0,0,0,1.088.725c.181.091.544.091.634.362,0,.181-.272.453-.363.634a1.306,1.306,0,0,1-1,.816,9.111,9.111,0,0,1-2.266.362c0,.181.091.181.181.272a5.038,5.038,0,0,0,1.541.816c.181.091.181.181.091.362a1.2,1.2,0,0,1-1,.725,16.34,16.34,0,0,1-3.534.725H30.9a4.98,4.98,0,0,0,.816.634,9.663,9.663,0,0,0,1.722.634c.091,0,.181.091.091.181a7,7,0,0,1-1.541,1.722,2.059,2.059,0,0,1-1.631.453H28.275a9.85,9.85,0,0,0-1.631.091,1.681,1.681,0,0,0-1.088.634A16.607,16.607,0,0,0,23.472,37.7l-.272.544A1.92,1.92,0,0,1,21.931,39.6a6.255,6.255,0,0,0-1.812.816Z" transform="translate(-20.119 -17.672)" fill="#1468d7" fill-rule="evenodd"/>
</svg>
